<svg width="265" height="256" viewBox="0 0 265 256" fill="none" xmlns="http://www.w3.org/2000/svg">
<path d="M0.0693461 0H264.069C264.069 0 122.569 12 59.0693 89.5C-4.43066 167 0.0693461 255.5 0.0693461 255.5V0Z" fill="url(#paint0_linear_57_47)"/>
<path d="M43.29 29C34.6022 29 26 41.1519 26 52.2913C26 54.8731 34.4293 59 43.29 59C52.1507 59 60.58 54.8731 60.58 52.2913C60.58 41.1519 51.9778 29 43.29 29ZM43.3012 54.5281C33.6373 54.5281 30.8951 50.6506 30.8951 49.4244C30.8951 47.0112 34.8551 41.015 36.2978 41.015C37.6345 41.015 39.1646 44.4106 40.5998 44.4106C42.907 44.4106 45.3722 36.9969 47.2537 36.9969C49.1351 36.9969 55.8076 46.7056 55.8076 49.6512C55.8076 50.1594 53.7923 54.5281 43.3012 54.5281Z" fill="white"/>
<defs>
<linearGradient id="paint0_linear_57_47" x1="132.035" y1="0" x2="132.035" y2="255.5" gradientUnits="userSpaceOnUse">
<stop stop-color="#FE1209"/>
<stop offset="1" stop-color="#FEA454"/>
</linearGradient>
</defs>
</svg>
