<svg width="149" height="150" viewBox="0 0 149 150" fill="none" xmlns="http://www.w3.org/2000/svg">
<path d="M74.3644 15C39.6139 15 5.20551 63.6075 5.20551 108.165C5.20551 118.493 38.9223 135 74.3644 135C109.806 135 143.523 118.493 143.523 108.165C143.523 63.6075 109.115 15 74.3644 15ZM74.409 117.112C35.7544 117.112 24.7857 101.603 24.7857 96.6975C24.7857 87.045 40.6253 63.06 46.396 63.06C51.7428 63.06 57.8629 76.6425 63.6039 76.6425C72.8325 76.6425 82.6932 46.9875 90.2189 46.9875C97.7446 46.9875 124.434 85.8225 124.434 97.605C124.434 99.6375 116.373 117.112 74.409 117.112Z" fill="url(#paint0_linear_17_50)"/>
<defs>
<linearGradient id="paint0_linear_17_50" x1="74.3644" y1="15" x2="74.3644" y2="135" gradientUnits="userSpaceOnUse">
<stop stop-color="#FE1209"/>
<stop offset="1" stop-color="#FEAD59"/>
</linearGradient>
</defs>
</svg>
