<svg width="35" height="30" viewBox="0 0 35 30" fill="none" xmlns="http://www.w3.org/2000/svg">
<path d="M17.29 0C8.60224 0 0 12.1519 0 23.2913C0 25.8731 8.42934 30 17.29 30C26.1507 30 34.58 25.8731 34.58 23.2913C34.58 12.1519 25.9778 0 17.29 0ZM17.3012 25.5281C7.63735 25.5281 4.89512 21.6506 4.89512 20.4244C4.89512 18.0112 8.85508 12.015 10.2978 12.015C11.6345 12.015 13.1646 15.4106 14.5998 15.4106C16.907 15.4106 19.3722 7.99687 21.2537 7.99687C23.1351 7.99687 29.8076 17.7056 29.8076 20.6512C29.8076 21.1594 27.7923 25.5281 17.3012 25.5281Z" fill="white"/>
</svg>
